<svg width="75" height="104" viewBox="0 0 75 104" fill="none" xmlns="http://www.w3.org/2000/svg">
<path d="M49.3256 19.5906C47.719 20.9739 47.3696 23.3045 47.3407 25.4227C47.3119 27.5408 47.4632 29.7706 46.505 31.6618C48.652 31.8671 50.8241 32.0725 52.953 31.7303C55.082 31.388 57.1965 30.4334 58.4969 28.7152C57.9926 30.1921 56.8543 31.4385 55.4314 32.0725C53.4285 32.9622 51.1231 32.6308 48.9546 32.9334C46.2817 33.3045 43.7673 34.7021 42.0347 36.7698C44.3653 35.8801 46.9121 37.2706 48.9113 38.7655C50.9106 40.2605 53.0539 41.9968 55.5431 41.8671C53.2844 42.6163 50.925 41.2583 48.9041 40.0047C46.8833 38.7475 44.4157 37.5011 42.2364 38.4521C40.8891 39.0393 39.985 40.3829 39.5743 41.795C39.1637 43.2071 39.1745 44.7057 39.1853 46.1754C39.1961 47.4218 39.2069 48.6718 39.2177 49.9182C39.2357 51.8598 39.3582 54.0428 40.8063 55.336C42.33 56.6977 44.6391 56.4779 46.6779 56.341C48.7168 56.2041 51.1555 56.4455 52.1642 58.225C51.0907 57.4974 49.7687 57.1443 48.4755 57.2344C49.0698 58.4339 50.1721 59.3741 51.4509 59.7704C50.8745 60.0478 50.1721 59.8064 49.6534 59.4282C49.1347 59.0499 48.7168 58.542 48.1765 58.1962C46.6671 57.2272 44.6895 57.7351 42.9784 58.2754C43.6845 59.3165 45.1002 59.5218 46.3429 59.6947C47.5857 59.8677 49.0158 60.2387 49.5165 61.3914C48.407 60.5413 46.9265 60.1919 45.5504 60.4548C46.523 61.4671 46.786 63.0953 46.1772 64.3633C46.3105 63.297 45.817 62.2308 45.0966 61.4346C44.3761 60.6385 43.4503 60.0658 42.5354 59.5038C41.3574 58.7798 40.1759 58.0557 38.998 57.3281C40.3452 60.2027 41.8293 63.2358 44.5274 64.918C42.7767 64.5974 41.2061 63.4087 40.4208 61.8129C39.6896 62.8503 38.7926 63.7689 37.7696 64.5218C38.5369 63.6392 39.1889 62.5802 39.2429 61.4094C39.2969 60.2423 38.5873 58.9815 37.449 58.7257C35.6767 59.0932 34.7329 61.5247 35.792 62.9944C36.1918 63.5456 36.8258 64.0319 36.8114 64.7127C35.9505 63.7617 35.0931 62.8071 34.2322 61.8561C33.4037 63.3294 31.97 64.4534 30.3418 64.9072C32.6076 62.7026 34.4195 60.0334 35.6335 57.1119C34.4051 58.4231 32.6544 59.0824 31.1379 60.0478C29.6213 61.0132 28.2165 62.591 28.4254 64.3741C27.8094 63.1277 28.0147 61.5247 28.9189 60.4692C27.5933 60.1378 26.1055 60.5665 25.1618 61.5499C25.3167 60.2927 26.8224 59.7416 28.0832 59.6047C29.3404 59.4678 30.8173 59.3597 31.5017 58.2935C30.3094 57.5334 28.7676 57.4685 27.4024 57.854C26.0407 58.2394 24.8267 59.0283 23.6992 59.8821C24.5242 59.0607 25.3455 58.243 26.1704 57.4217C24.96 57.0543 23.5768 57.3208 22.5934 58.1097C23.7281 56.3158 26.2568 56.1825 28.375 56.305C30.4967 56.4311 32.975 56.4635 34.3006 54.8029C34.9779 53.9563 35.1868 52.836 35.3237 51.7589C35.6371 49.3094 35.6983 46.8274 35.511 44.3634C35.3417 42.1625 34.7761 39.6805 32.8561 38.589C30.738 37.3822 28.0796 38.4665 25.9759 39.6985C23.8722 40.9305 21.5487 42.375 19.1748 41.813C20.6662 41.9643 22.1179 41.2691 23.339 40.3973C24.5602 39.5256 25.6445 38.4629 26.9377 37.7064C28.5983 36.7374 30.5795 36.3196 32.4887 36.5321C30.6768 34.5617 28.1696 33.2468 25.5184 32.8722C23.321 32.5624 20.9796 32.865 18.9587 31.9428C17.5358 31.2908 16.3975 30.0408 15.886 28.5603C17.2224 30.3182 19.3838 31.2944 21.5631 31.6474C23.7425 32.0004 25.9687 31.7987 28.166 31.5934C27.0601 29.8463 27.1898 27.6273 27.2186 25.5596C27.2439 23.8881 27.1466 22.0509 26.21 20.6064C26.0263 20.3218 25.7561 20.0949 25.5724 19.8211C25.8894 19.8463 26.3001 20.2498 26.5198 20.4623C26.8008 20.7361 27.0349 21.0531 27.233 21.3881C27.6437 22.0942 27.8887 22.8867 28.0363 23.6864C28.0832 23.9493 28.1228 24.2159 28.148 24.4825C28.3353 26.3485 28.1948 28.3045 28.9441 30.0228C29.8483 32.0905 31.8583 33.4053 33.5081 34.9471C35.1039 36.4384 36.426 38.2288 37.3806 40.1956C38.4036 35.718 44.2392 33.8808 45.8242 29.5653C46.4618 27.8254 46.3141 25.9126 46.5519 24.0754C46.786 22.2383 47.6037 20.2498 49.3292 19.5762L49.3256 19.5906Z" fill="#1B4935"/>
<path d="M34.7612 22.2708C33.9039 20.9884 33.0358 19.7168 32.1496 18.456C32.2397 19.0071 32.4378 19.5331 32.6359 20.059C32.9853 20.9884 33.3347 21.9142 33.6842 22.8436C32.4414 23.1822 31.0509 22.9516 29.9847 22.2276C28.9184 21.5035 28.1907 20.3004 28.0431 19.0179C27.9458 18.1462 28.1043 17.2636 28.2952 16.4063C28.4753 15.5994 28.6879 14.7997 28.8968 14.0036C29.0409 13.4596 29.185 13.2471 29.7289 13.3768C30.3377 13.5173 30.9429 13.7442 31.5336 13.9423C33.1078 14.4719 34.7612 15.1671 35.6366 16.5756C36.1841 17.4546 36.3606 18.5424 36.1805 19.5655C36.0004 20.5885 35.4781 21.5323 34.7576 22.2744L34.7612 22.2708Z" fill="#1B4935"/>
<path d="M39.9886 22.1005L39.967 22.1293C39.0521 21.3116 38.5045 20.094 38.5045 18.8656C38.5045 17.6373 39.0521 16.4197 39.967 15.602C41.2278 14.4781 43.0686 14.0386 44.6211 13.4766C44.812 13.4082 45.0246 13.3361 45.2155 13.4046C45.428 13.4802 45.5541 13.6964 45.6514 13.9017C46.0692 14.7662 46.3646 15.6884 46.5303 16.6322C46.678 17.4788 46.7212 18.3505 46.5699 19.1934C46.4222 20.04 46.0728 20.8577 45.5073 21.5025C44.4122 22.7489 42.5714 23.1956 40.954 22.8281C41.4439 21.5097 41.9339 20.1949 42.4202 18.8764C42.4526 18.7936 42.4454 18.6567 42.3553 18.6639C41.5664 19.8094 40.7739 20.9586 39.985 22.1041L39.9886 22.1005Z" fill="#596825"/>
<path d="M52.5967 26.9149C52.5679 26.9077 52.5319 26.9149 52.503 26.9222C51.3251 27.286 50.1508 27.6462 48.9729 28.01C48.6991 27.0951 48.8576 26.072 49.3223 25.2363C49.7617 24.4474 50.511 23.7233 51.3395 23.3523C52.2473 22.9452 53.4 22.9632 54.3654 23.1145C55.3524 23.2694 56.3034 23.6081 57.2112 24.0259C57.4922 24.1556 57.8019 24.3285 57.8776 24.6311C57.9316 24.8436 57.8524 25.0634 57.7731 25.2687C57.6326 25.6433 57.4886 26.018 57.3445 26.389C56.8041 27.7831 56.1521 29.2384 54.9057 30.0669C54.0664 30.6217 53.0074 30.8306 52.0131 30.6505C51.0225 30.474 50.104 29.9192 49.47 29.1376C50.5074 28.4459 51.5413 27.7543 52.5787 27.0662C52.6183 27.041 52.6652 26.9978 52.6471 26.9546C52.6399 26.933 52.6219 26.9221 52.6003 26.9185L52.5967 26.9149Z" fill="#A1B455"/>
<path d="M16.343 24.5795C18.2414 23.4844 19.9777 22.8792 21.9121 23.0557C24.3076 23.2755 25.961 25.4008 25.626 27.9188C24.4409 27.573 23.2629 27.2308 22.0886 26.8885C22.0706 26.9354 22.049 26.9786 22.031 27.0254C23.036 27.6558 24.041 28.2862 25.1037 28.9526C24.992 29.1364 24.9308 29.3093 24.8119 29.4281C22.9531 31.3265 19.8804 31.0348 18.3279 28.6717C17.5101 27.4289 17.0058 25.9772 16.343 24.5795Z" fill="#4F813A"/>
<path d="M22.9013 34.7582C22.0547 35.4499 21.2118 36.1451 20.3689 36.8404C20.459 36.9016 20.585 36.8584 20.6823 36.8115C21.5865 36.4009 22.4906 35.9902 23.3984 35.5796C23.7262 36.4333 23.7478 37.4059 23.4236 38.2597C23.0994 39.1134 22.4294 39.8374 21.5865 40.1905C20.6355 40.5903 19.5548 40.5075 18.5354 40.3562C17.959 40.2697 17.3862 40.1653 16.8135 40.0608C16.5938 40.0212 16.3488 39.9671 16.2227 39.7798C16.0858 39.5817 16.1327 39.3151 16.1867 39.0846C16.2804 38.6739 16.374 38.2633 16.4749 37.8526C16.7054 36.8944 16.9684 35.9218 17.5231 35.1113C18.7659 33.2921 21.3991 33.1985 22.9085 34.7582H22.9013Z" fill="#1B737C"/>
<path d="M51.1894 35.656C52.1728 36.1351 53.1526 36.6106 54.136 37.0897C54.1721 37.1077 54.2153 37.1221 54.2477 37.0969C54.2909 37.0572 54.2477 36.9888 54.2009 36.9528C53.3904 36.2719 52.5799 35.5911 51.7694 34.9067C52.5114 33.8332 54.0568 33.5702 55.2455 33.9377C55.9876 34.1682 56.6504 34.6545 57.0935 35.2957C57.5366 35.9333 57.7527 36.7006 57.9472 37.4499C58.0913 38.0082 58.2246 38.5666 58.3615 39.125C58.4083 39.3267 58.4551 39.5428 58.3723 39.7337C58.2678 39.9715 57.994 40.076 57.7455 40.1552C56.7765 40.4614 55.7679 40.6919 54.752 40.6451C53.7362 40.5983 52.706 40.2525 51.9855 39.5356C50.9949 38.5558 50.7283 36.9672 51.193 35.656H51.1894Z" fill="#756626"/>
<path d="M31.7761 28.2863C31.7725 28.3296 31.7798 28.38 31.7942 28.4196C32.0499 29.0825 32.3093 29.7453 32.565 30.4081C31.9274 30.5918 31.225 30.5522 30.6234 30.2712C30.0219 29.9902 29.5392 29.4607 29.3374 28.8303C29.1573 28.2683 29.2005 27.6632 29.2654 27.0796C29.3194 26.6077 29.3843 26.1358 29.4671 25.6675C29.7013 24.2986 31.0881 25.0839 31.9563 25.4333C32.6983 25.7323 33.4548 26.1322 33.8582 26.8238C34.4562 27.8397 34.078 29.2157 33.2567 30.0587C32.792 29.4319 32.3309 28.8087 31.8662 28.1819C31.8086 28.1747 31.7798 28.2251 31.7761 28.29V28.2863Z" fill="#95B830"/>
<path d="M30.2197 38.9133C29.9604 39.6734 29.7262 40.365 29.4921 41.0603C29.5353 41.0819 29.5749 41.1035 29.6182 41.1251C30.0396 40.5307 30.4647 39.9328 30.8862 39.3384C32.0821 40.1129 32.2046 42.0077 31.1095 43.1748C30.2954 44.0394 29.2219 44.4536 28.0836 44.677C27.9143 44.7094 27.5577 44.5005 27.5109 44.3384C27.2767 43.5531 27.0101 42.7498 26.9597 41.9428C26.83 39.8427 27.9323 38.8161 30.2197 38.9169V38.9133Z" fill="#81B425"/>
<path d="M42.0996 30.4138C42.4129 29.6429 42.6975 28.8612 42.9461 28.0687C42.4021 28.6451 41.9591 29.3079 41.5196 29.9707C40.6478 29.3691 40.3597 28.1155 40.7379 27.1249C41.3071 25.6372 42.9353 25.068 44.387 24.8663C44.5131 24.8483 44.6499 24.8339 44.7652 24.8843C44.9813 24.978 45.0498 25.2481 45.093 25.4823C45.2047 26.1019 45.3163 26.7179 45.3704 27.3447C45.428 28.0507 45.4028 28.8036 45.021 29.398C44.4338 30.3201 43.173 30.5903 42.0959 30.4138H42.0996Z" fill="#4B196A"/>
<path d="M43.6481 39.3574C44.0804 39.9553 44.5091 40.5497 44.9413 41.1477C44.981 41.1261 45.0242 41.1081 45.0638 41.0865C44.8261 40.402 44.5919 39.7176 44.3542 39.0296C46.1949 38.5757 47.5818 39.7716 47.5674 41.7745C47.5638 42.3256 47.4485 42.8876 47.3116 43.4279C46.9298 44.9337 46.8685 44.9517 45.3844 44.4078C43.5941 43.7521 42.6575 42.6535 42.7836 41.1909C42.8376 40.5641 43.1366 39.9589 43.3275 39.343C43.4356 39.3466 43.5437 39.3538 43.6517 39.3574H43.6481Z" fill="#1887C5"/>
<path d="M37.6266 15.9043C37.5618 15.1911 37.5078 14.5751 37.4501 13.9591C37.3889 13.9591 37.3276 13.9591 37.2664 13.9591C37.18 14.5931 37.0971 15.2235 37.0034 15.9007C36.002 15.5945 35.3428 14.9821 35.1843 14.0239C34.8817 12.1976 36.0741 11.0664 37.2808 9.86328C38.5164 10.8683 39.543 11.9778 39.5142 13.6385C39.4962 14.748 38.7938 15.49 37.6266 15.9115V15.9043Z" fill="#9BBC2E"/>
<path d="M37.6266 29.002C37.5618 28.2887 37.5078 27.6727 37.4501 27.0567C37.3889 27.0567 37.3276 27.0567 37.2664 27.0567C37.18 27.6907 37.0971 28.3211 37.0034 28.9984C36.002 28.6922 35.3428 28.0798 35.1843 27.1216C34.8817 25.2952 36.0741 24.1641 37.2808 22.9609C38.5164 23.966 39.543 25.0755 39.5142 26.7361C39.4962 27.8456 38.7938 28.5877 37.6266 29.0092V29.002Z" fill="#1B737C"/>
<path d="M54.5756 19.0122C54.3955 20.1541 54.3558 21.3069 53.2571 21.9733C52.5619 22.3948 51.8415 22.3047 51.1102 21.7932C51.3444 21.523 51.5461 21.2925 51.8487 20.9466C51.4596 21.1051 51.2039 21.2096 50.8905 21.3357C50.6311 20.6368 50.7176 19.9812 51.2039 19.4877C52.1585 18.5187 53.3292 18.7348 54.5792 19.0122H54.5756Z" fill="#8EA646"/>
<path d="M49.4998 16.6612C49.4025 17.2772 49.3809 17.8968 48.7901 18.2571C48.4155 18.484 48.0265 18.4372 47.6338 18.1598C47.7599 18.0121 47.868 17.8896 48.0301 17.7023C47.8211 17.7888 47.6806 17.8428 47.5149 17.9112C47.3745 17.533 47.4213 17.1836 47.6843 16.917C48.1958 16.3947 48.8262 16.5136 49.5034 16.6612H49.4998Z" fill="#739F39"/>
<path d="M24.4534 16.4609C25.073 16.5186 25.6962 16.5006 26.0888 17.0697C26.3374 17.4299 26.3157 17.819 26.0636 18.2297C25.9087 18.1108 25.779 18.0135 25.5809 17.8622C25.6781 18.0676 25.743 18.2008 25.8222 18.3629C25.4548 18.5286 25.1018 18.5034 24.8208 18.2585C24.2661 17.7794 24.3417 17.1418 24.4498 16.4609H24.4534Z" fill="#739F39"/>
<path d="M20.2117 18.9537C21.4689 18.7267 22.5855 18.5718 23.5005 19.4544C24.0589 19.9947 24.1345 20.6936 23.9148 21.5005C23.5654 21.2591 23.2916 21.0682 23.0142 20.8737C22.989 20.8989 22.9602 20.9241 22.935 20.9493C23.1439 21.1979 23.3528 21.4464 23.5906 21.731C22.971 22.2786 22.2866 22.2858 21.6454 21.9904C20.381 21.4068 20.5071 20.1352 20.2117 18.9501V18.9537Z" fill="#777924"/>
<path d="M13.6863 32.9745C14.4139 32.0703 15.1272 31.2382 16.3591 31.2958C17.1012 31.3318 17.5947 31.8001 17.8649 32.5674C17.5551 32.6503 17.3101 32.7151 16.9139 32.8196C17.2885 32.9132 17.5263 32.9745 17.8361 33.0501C17.6992 33.7706 17.2633 34.2569 16.5825 34.383C15.3253 34.6207 14.5076 33.857 13.6863 32.9745Z" fill="#32682C"/>
<path d="M60.7995 33.1152C59.9566 33.9797 59.1425 34.7218 57.9069 34.484C57.2153 34.3508 56.8406 33.85 56.6749 33.0936C56.9955 33.0467 57.2729 33.0071 57.5467 32.9675C57.5575 32.9351 57.5683 32.9026 57.5791 32.8702C57.3305 32.809 57.0856 32.7477 56.7722 32.6721C56.8226 32.0381 57.1792 31.5806 57.7772 31.4653C59.1713 31.1988 59.989 32.0993 60.7995 33.1152Z" fill="#F96E1E"/>
<path d="M27.9283 35.3831C27.7842 36.0675 27.3988 36.4241 26.8224 36.471C25.839 36.5502 25.1906 35.9667 24.5927 35.2246C25.1222 34.5149 25.6589 33.8521 26.6387 33.9098C27.2583 33.9458 27.741 34.2304 27.9319 34.9364C27.6582 35.0157 27.4168 35.0877 27.0818 35.185C27.406 35.2606 27.6365 35.3146 27.9283 35.3831Z" fill="#307E47"/>
<path d="M13.0308 20.2298C14.1439 20.1721 15.1201 20.2118 15.682 21.1808C15.8585 21.4834 15.7829 21.9372 15.7937 22.3227C15.7937 22.3407 15.5019 22.3623 15.3038 22.3911C15.3254 22.4992 15.3614 22.6613 15.4299 22.9891C14.9075 22.8991 14.4248 22.9315 14.0682 22.737C13.1172 22.2146 13.0992 21.2456 13.0308 20.2298Z" fill="#F96E1E"/>
<path d="M49.9524 35.2147C49.3184 35.9604 48.6808 36.5764 47.7478 36.4503C47.3407 36.3963 46.9841 35.9496 46.4402 35.5642C46.9517 35.3696 47.1895 35.276 47.4488 35.1787C47.2075 35.0995 46.9913 35.031 46.7428 34.9482C46.8544 34.325 47.2255 34.0152 47.773 33.9684C48.7384 33.8855 49.3256 34.5087 49.9524 35.2147Z" fill="#6B6E1C"/>
<path d="M25.1946 41.6507C25.1514 41.7984 25.119 41.8921 25.0938 41.9857C25.0758 42.0542 25.0722 42.1262 25.1658 42.2739C25.2523 42.1154 25.3387 41.9605 25.4576 41.7444C25.9295 42.3135 26.0087 42.8539 25.7206 43.3618C25.2703 44.1579 24.4886 44.374 23.6385 44.392C23.0009 42.8178 23.7105 41.4922 25.1946 41.6471V41.6507Z" fill="#756626"/>
<path d="M49.1561 42.107C49.3073 42.1863 49.455 42.2655 49.6388 42.3664C49.6099 42.1971 49.5847 42.0494 49.5595 41.9017C50.8563 41.6676 51.4183 42.5717 51.0652 44.3044C49.4767 44.3837 48.5941 43.3966 49.1561 42.107Z" fill="#6EA93E"/>
<path d="M50.1585 23.1197C49.7262 23.5988 49.5389 23.9698 49.2471 24.0959C48.8004 24.2832 48.397 24.0382 48.2817 23.5519C48.1664 23.0548 48.4618 22.6802 48.9301 22.6478C49.2435 22.6262 49.5713 22.8819 50.1585 23.1197Z" fill="#1B5A45"/>
<path d="M58.1447 43.6009C57.5035 43.5253 57.0929 43.5865 56.8227 43.4208C56.4084 43.165 56.376 42.6931 56.711 42.3185C57.0496 41.9367 57.5251 41.9583 57.8205 42.3257C58.0186 42.5671 58.0006 42.9849 58.1447 43.6009Z" fill="#6EA93E"/>
<path d="M41.4078 33.9622C40.7666 33.8866 40.3559 33.9478 40.0857 33.7821C39.6715 33.5264 39.6391 33.0545 39.9741 32.6798C40.3127 32.298 40.7882 32.3196 41.0836 32.687C41.2817 32.9284 41.2637 33.3462 41.4078 33.9622Z" fill="#4E5069"/>
<path d="M32.8354 32.5275C33.2353 32.0196 33.3974 31.6378 33.682 31.4937C34.1178 31.2739 34.5357 31.4937 34.6798 31.9728C34.8275 32.4627 34.5609 32.8553 34.0962 32.9166C33.7864 32.9562 33.4406 32.7256 32.839 32.5275H32.8354Z" fill="#95B830"/>
<path d="M17.3333 22.2342C17.6755 21.6903 17.7979 21.2904 18.0645 21.1175C18.4752 20.8546 18.9146 21.0275 19.1092 21.4886C19.3073 21.9605 19.0803 22.3783 18.6265 22.49C18.3239 22.562 17.9528 22.3711 17.3333 22.2342Z" fill="#1B737C"/>
<path d="M13.6055 43.6945C14.1206 42.8732 14.3043 42.2752 14.7078 42.0159C15.3237 41.6232 15.9829 41.8826 16.2747 42.5742C16.5737 43.2839 16.2351 43.9107 15.5471 44.0764C15.0896 44.1881 14.5384 43.8963 13.6055 43.6909V43.6945Z" fill="#97BD27"/>
<path d="M16.3826 100.995H10.3093C9.94905 100.729 9.59242 100.318 9.24301 99.7599C8.89359 99.2015 8.72068 98.5603 8.72068 97.8326C8.72068 96.9825 8.96203 96.2945 9.44473 95.7613C9.92743 95.2282 10.6011 94.9616 11.4692 94.9616C12.0239 94.9616 12.5246 95.0769 12.9677 95.3039C13.4144 95.5344 13.8287 95.8298 14.2141 96.19C14.3834 96.3593 14.5743 96.3593 14.7941 96.19L16.3106 94.7095C16.3574 94.6374 16.3935 94.5654 16.4187 94.4933C16.4439 94.4213 16.4079 94.3132 16.3106 94.1691C15.8279 93.4955 15.1615 92.9588 14.3042 92.5589C13.4468 92.1627 12.4922 91.9609 11.4296 91.9609C10.3669 91.9609 9.37989 92.1374 8.60901 92.4869C7.83813 92.8363 7.20414 93.2902 6.71063 93.8485C6.21713 94.4069 5.8533 95.0337 5.62636 95.7361C5.39581 96.4386 5.28414 97.1266 5.28414 97.8038C5.28414 98.4811 5.36339 99.0502 5.51829 99.5834C5.67319 100.116 5.88572 100.588 6.15228 100.999H4.05578C3.81443 100.999 3.69556 101.129 3.69556 101.392V103.607C3.69556 103.87 3.81443 104 4.05578 104H16.3826C16.624 104 16.7429 103.87 16.7429 103.607V101.392C16.7429 101.129 16.6204 100.999 16.3826 100.999V100.995Z" fill="#264F41"/>
<path d="M72.0853 100.383H64.2432C64.0487 100.311 63.7893 100.174 63.4651 99.9687C63.1409 99.7633 62.8275 99.4824 62.5249 99.1221C62.2224 98.7619 61.9594 98.326 61.7288 97.8073C61.4983 97.2922 61.3866 96.6726 61.3866 95.9521C61.3866 94.7274 61.718 93.7583 62.3808 93.0379C63.0437 92.3174 63.9874 91.9572 65.2194 91.9572C66.7143 91.9572 67.9895 92.5372 69.0522 93.6935C69.2215 93.888 69.3908 93.8988 69.5601 93.7295L71.5125 91.705C71.707 91.5609 71.7395 91.3916 71.6206 91.1971C70.9938 90.3794 70.1257 89.6986 69.0162 89.1546C67.9067 88.6107 66.5594 88.3405 64.9673 88.3405C63.4975 88.3405 62.262 88.5711 61.2642 89.0249C60.2627 89.4824 59.4558 90.066 58.8434 90.772C58.2275 91.4817 57.788 92.2742 57.525 93.1496C57.2585 94.0249 57.1288 94.8858 57.1288 95.7252C57.1288 96.7843 57.2837 97.6848 57.5971 98.4269C57.9105 99.1726 58.3067 99.821 58.7894 100.372H54.6685C53.7535 100.372 53.0294 100.181 52.4999 99.7958C51.9704 99.4103 51.693 98.8592 51.6678 98.1387C51.6678 97.9946 51.675 97.8217 51.6858 97.6164C51.6966 97.411 51.7038 97.1913 51.7038 96.95C51.7038 95.6531 51.5417 94.4716 51.2139 93.4017C50.8861 92.3318 50.3674 91.4241 49.6577 90.682C48.9445 89.9363 48.0331 89.3599 46.9236 88.9529C45.8141 88.5458 44.4597 88.3405 42.8675 88.3405C41.3942 88.3405 39.9749 88.5386 38.6097 88.9385C37.2444 89.3383 35.9836 89.8138 34.8237 90.365V79.7743C34.8237 79.5329 34.7048 79.4141 34.4671 79.4141H31.135C30.8973 79.4141 30.7784 79.5329 30.7784 79.7743V96.0134C30.7784 96.8815 30.7604 97.5948 30.7244 98.1603C30.6883 98.7259 30.6091 99.1726 30.4902 99.4968C30.3713 99.821 30.184 100.052 29.9319 100.181C29.6797 100.314 29.3339 100.379 28.9016 100.379H27.0933C27.0933 100.379 27.0789 100.379 27.0753 100.379C27.0681 100.379 27.0645 100.379 27.0573 100.379H25.7929C25.1913 100.379 24.7518 100.242 24.4745 99.9651C24.1971 99.6877 24.0602 99.1906 24.0602 98.4665V79.7743C24.0602 79.5329 23.9413 79.4141 23.7036 79.4141H20.3715C20.1338 79.4141 20.0149 79.5329 20.0149 79.7743V99.4391C20.0149 101.006 20.3355 102.155 20.9803 102.89C21.6251 103.625 22.7022 103.992 24.2079 103.992H27.0645C27.0645 103.992 27.0753 103.992 27.0825 103.992C27.0897 103.992 27.0933 103.992 27.1005 103.992H29.9211C30.6199 103.992 31.2431 103.964 31.7906 103.902C32.3382 103.841 32.8173 103.668 33.2243 103.376C33.5341 103.787 34.0708 103.992 34.8381 103.992H44.5101C45.3314 103.992 46.0807 103.967 46.7579 103.92C47.4352 103.874 48.0331 103.769 48.5518 103.611C49.0706 103.452 49.5172 103.222 49.8919 102.919C50.2665 102.616 50.5871 102.206 50.8537 101.694C51.2139 102.62 51.7867 103.236 52.5719 103.539C53.3536 103.841 54.265 103.996 55.3024 103.996H72.1105C72.3518 103.996 72.4707 103.874 72.4707 103.632V100.747C72.4707 100.505 72.3518 100.383 72.1105 100.383H72.0853ZM47.2514 98.852C47.1326 99.3419 46.8948 99.7021 46.5454 99.9326C46.196 100.16 45.6989 100.293 45.0613 100.329C44.4201 100.365 43.5916 100.383 42.5793 100.383H34.676C34.7228 100.145 34.7589 99.893 34.7841 99.6264C34.8093 99.3635 34.8201 99.0861 34.8201 98.7979V93.9024C35.8359 93.4233 36.9959 92.9802 38.2999 92.5696C39.6039 92.1625 40.9331 91.9572 42.2875 91.9572C43.3034 91.9572 44.1355 92.0653 44.7875 92.2814C45.4395 92.4975 45.9654 92.8109 46.3653 93.218C46.7651 93.6251 47.0425 94.1294 47.1974 94.7309C47.3559 95.3289 47.4315 96.0134 47.4315 96.7806C47.4315 97.6668 47.3703 98.3584 47.2514 98.852Z" fill="#264F41"/>
<path d="M37.049 74.0953C16.6207 74.0953 0 57.4744 0 37.0458C0 16.6173 16.6207 0 37.049 0C57.4774 0 74.0981 16.6209 74.0981 37.0494C74.0981 57.478 57.4774 74.0989 37.049 74.0989V74.0953ZM37.049 1.85878C17.6474 1.85878 1.86236 17.644 1.86236 37.0458C1.86236 56.4477 17.6474 72.2329 37.049 72.2329C56.4507 72.2329 72.2357 56.4477 72.2357 37.0458C72.2357 17.644 56.4507 1.86238 37.049 1.86238V1.85878Z" fill="#1B4935"/>
<path d="M37.0495 70.3315C18.6961 70.3315 3.76477 55.4001 3.76477 37.0465C3.76477 18.6929 18.6961 3.75781 37.0495 3.75781C55.4029 3.75781 70.3342 18.6893 70.3342 37.0429C70.3342 55.3965 55.4029 70.3279 37.0495 70.3279V70.3315ZM37.0495 4.38101C19.0383 4.38101 4.38435 19.0351 4.38435 37.0465C4.38435 55.0579 19.0383 69.7119 37.0495 69.7119C55.0607 69.7119 69.7146 55.0579 69.7146 37.0465C69.7146 19.0351 55.0607 4.38101 37.0495 4.38101Z" fill="#9BBC2E"/>
</svg>
