<svg width="46" height="64" viewBox="0 0 46 64" fill="none" xmlns="http://www.w3.org/2000/svg">
<path d="M30.3537 12.0577C29.365 12.909 29.15 14.3433 29.1323 15.6468C29.1145 16.9504 29.2077 18.3226 28.618 19.4865C29.9392 19.6129 31.2759 19.7392 32.5861 19.5286C33.8962 19.318 35.1975 18.7305 35.9977 17.6731C35.6874 18.582 34.9869 19.3491 34.1112 19.7392C32.8787 20.2868 31.4599 20.0829 30.1254 20.2691C28.4805 20.4974 26.9332 21.3576 25.8669 22.6301C27.3012 22.0825 28.8685 22.9382 30.0988 23.8582C31.3291 24.7782 32.6481 25.8468 34.1799 25.767C32.79 26.2281 31.338 25.3923 30.0944 24.6208C28.8508 23.8471 27.3322 23.0801 25.9911 23.6654C25.162 24.0267 24.6056 24.8536 24.3529 25.7226C24.1001 26.5917 24.1068 27.5139 24.1134 28.4184C24.1201 29.1854 24.1267 29.9547 24.1334 30.7217C24.1445 31.9166 24.2198 33.2601 25.111 34.0559C26.0487 34.8939 27.4697 34.7587 28.7244 34.6744C29.9791 34.5902 31.4799 34.7387 32.1006 35.8339C31.44 35.3861 30.6264 35.1688 29.8306 35.2242C30.1964 35.9625 30.8747 36.5411 31.6617 36.7849C31.307 36.9556 30.8747 36.8071 30.5555 36.5743C30.2363 36.3416 29.9791 36.029 29.6466 35.8161C28.7177 35.2198 27.5007 35.5324 26.4477 35.8649C26.8822 36.5056 27.7534 36.632 28.5182 36.7384C29.283 36.8448 30.1631 37.0731 30.4712 37.7825C29.7885 37.2593 28.8773 37.0443 28.0305 37.2061C28.6291 37.8291 28.7909 38.8311 28.4163 39.6115C28.4983 38.9553 28.1946 38.2991 27.7512 37.8091C27.3079 37.3192 26.7381 36.9667 26.1751 36.6209C25.4502 36.1753 24.7231 35.7297 23.9982 35.2819C24.8273 37.051 25.7406 38.9176 27.401 39.9529C26.3236 39.7556 25.3571 39.024 24.8738 38.0419C24.4238 38.6804 23.8718 39.2457 23.2422 39.709C23.7144 39.1659 24.1157 38.5141 24.1489 37.7936C24.1822 37.0753 23.7454 36.2994 23.0449 36.142C21.9543 36.3682 21.3735 37.8646 22.0252 38.7691C22.2713 39.1082 22.6614 39.4075 22.6526 39.8265C22.1227 39.2413 21.5951 38.6538 21.0653 38.0685C20.5555 38.9752 19.6732 39.6669 18.6712 39.9462C20.0656 38.5895 21.1806 36.9468 21.9277 35.1489C21.1717 35.9558 20.0944 36.3615 19.1611 36.9556C18.2278 37.5498 17.3633 38.5208 17.4918 39.6181C17.1128 38.8511 17.2391 37.8646 17.7955 37.215C16.9798 37.0111 16.0642 37.2749 15.4834 37.8801C15.5787 37.1064 16.5054 36.7672 17.2812 36.683C18.0549 36.5987 18.9638 36.5322 19.385 35.876C18.6512 35.4082 17.7024 35.3683 16.8623 35.6055C16.0243 35.8428 15.2773 36.3283 14.5834 36.8537C15.091 36.3482 15.5965 35.845 16.1041 35.3395C15.3593 35.1134 14.508 35.2774 13.9028 35.7629C14.6011 34.6589 16.1573 34.5769 17.4608 34.6523C18.7665 34.7299 20.2917 34.7498 21.1075 33.7278C21.5242 33.2069 21.6528 32.5174 21.737 31.8546C21.9299 30.3471 21.9676 28.8196 21.8523 27.3033C21.7481 25.9488 21.4001 24.4213 20.2185 23.7496C18.915 23.0069 17.279 23.6742 15.9844 24.4324C14.6898 25.1906 13.26 26.0795 11.7991 25.7337C12.7168 25.8268 13.6102 25.399 14.3617 24.8625C15.1132 24.326 15.7805 23.672 16.5763 23.2065C17.5982 22.6101 18.8175 22.353 19.9924 22.4837C18.8773 21.2711 17.3344 20.4619 15.7029 20.2314C14.3506 20.0407 12.9097 20.227 11.6661 19.6594C10.7904 19.2582 10.0899 18.4889 9.77515 17.5778C10.5976 18.6596 11.9277 19.2604 13.2688 19.4776C14.61 19.6949 15.98 19.5707 17.3322 19.4444C16.6517 18.3692 16.7315 17.0036 16.7492 15.7311C16.7647 14.7025 16.7049 13.5718 16.1285 12.6829C16.0155 12.5077 15.8492 12.3681 15.7361 12.1996C15.9312 12.2151 16.1839 12.4634 16.3192 12.5942C16.4921 12.7627 16.6362 12.9578 16.7581 13.1639C17.0108 13.5984 17.1615 14.0862 17.2524 14.5783C17.2812 14.7401 17.3056 14.9042 17.3211 15.0682C17.4364 16.2166 17.35 17.4204 17.8111 18.4778C18.3675 19.7503 19.6045 20.5595 20.6198 21.5083C21.6018 22.4261 22.4154 23.5279 23.0028 24.7383C23.6324 21.9827 27.2236 20.8521 28.199 18.1963C28.5914 17.1255 28.5005 15.9483 28.6468 14.8177C28.7909 13.6871 29.2941 12.4634 30.356 12.0488L30.3537 12.0577Z" fill="#BBD8C9"/>
<path d="M21.3931 13.7013C20.8655 12.9121 20.3312 12.1295 19.7859 11.3536C19.8413 11.6928 19.9633 12.0165 20.0852 12.3401C20.3002 12.9121 20.5152 13.4818 20.7303 14.0538C19.9655 14.2622 19.1098 14.1203 18.4536 13.6747C17.7974 13.2291 17.3496 12.4887 17.2588 11.6995C17.1989 11.163 17.2964 10.6198 17.4139 10.0922C17.5248 9.59563 17.6556 9.10348 17.7841 8.61355C17.8728 8.27879 17.9615 8.148 18.2962 8.22781C18.6709 8.31426 19.0433 8.45393 19.4068 8.57586C20.3756 8.90174 21.3931 9.3296 21.9318 10.1964C22.2687 10.7373 22.3774 11.4068 22.2665 12.0364C22.1557 12.666 21.8342 13.2469 21.3909 13.7035L21.3931 13.7013Z" fill="#1B4935"/>
<path d="M24.6079 13.5971L24.5946 13.6148C24.0315 13.1116 23.6946 12.3623 23.6946 11.6063C23.6946 10.8504 24.0315 10.1011 24.5946 9.59782C25.3705 8.90615 26.5033 8.63569 27.4587 8.28985C27.5762 8.24773 27.707 8.20339 27.8245 8.24551C27.9553 8.29207 28.0329 8.42508 28.0927 8.55145C28.3499 9.0835 28.5316 9.65102 28.6336 10.2319C28.7245 10.7528 28.7511 11.2893 28.658 11.8081C28.5671 12.329 28.3521 12.8323 28.004 13.2291C27.3301 13.9961 26.1974 14.271 25.202 14.0449C25.5035 13.2335 25.805 12.4244 26.1042 11.613C26.1242 11.562 26.1198 11.4777 26.0643 11.4822C25.5789 12.1872 25.0912 12.8943 24.6057 13.5993L24.6079 13.5971Z" fill="#596825"/>
<path d="M32.3672 16.5677C32.3495 16.5632 32.3273 16.5677 32.3096 16.5721C31.5847 16.796 30.862 17.0177 30.1371 17.2416C29.9686 16.6785 30.0662 16.0489 30.3522 15.5346C30.6226 15.0491 31.0837 14.6035 31.5936 14.3752C32.1522 14.1246 32.8616 14.1357 33.4557 14.2288C34.0631 14.3242 34.6483 14.5326 35.207 14.7897C35.3799 14.8695 35.5705 14.9759 35.6171 15.1622C35.6503 15.293 35.6015 15.4282 35.5528 15.5545C35.4663 15.7851 35.3776 16.0157 35.289 16.244C34.9565 17.1019 34.5552 17.9976 33.7882 18.5074C33.2717 18.8488 32.6199 18.9774 32.0081 18.8666C31.3985 18.758 30.8332 18.4166 30.443 17.9355C31.0815 17.5098 31.7177 17.0842 32.3561 16.6608C32.3805 16.6453 32.4093 16.6187 32.3983 16.5921C32.3938 16.5788 32.3827 16.5721 32.3694 16.5699L32.3672 16.5677Z" fill="#A1B455"/>
<path d="M10.0559 15.1322C11.2242 14.4583 12.2927 14.0858 13.4831 14.1944C14.9573 14.3297 15.9748 15.6376 15.7686 17.1873C15.0393 16.9744 14.3144 16.7638 13.5917 16.5532C13.5806 16.582 13.5673 16.6086 13.5562 16.6375C14.1747 17.0254 14.7932 17.4134 15.4472 17.8235C15.3785 17.9366 15.3408 18.043 15.2676 18.1161C14.1237 19.2844 12.2328 19.1049 11.2774 17.6506C10.7742 16.8858 10.4638 15.9923 10.0559 15.1322Z" fill="#4F813A"/>
<path d="M14.0902 21.3953C13.5692 21.8209 13.0505 22.2488 12.5318 22.6766C12.5872 22.7143 12.6648 22.6877 12.7246 22.6589C13.281 22.4062 13.8375 22.1535 14.3961 21.9007C14.5978 22.4261 14.6111 23.0247 14.4116 23.5501C14.2121 24.0755 13.7998 24.5211 13.281 24.7384C12.6958 24.9844 12.0308 24.9334 11.4034 24.8403C11.0487 24.7871 10.6963 24.7228 10.3438 24.6585C10.2086 24.6342 10.0578 24.6009 9.98023 24.4856C9.89599 24.3637 9.92481 24.1996 9.95806 24.0578C10.0157 23.805 10.0733 23.5523 10.1354 23.2996C10.2773 22.7099 10.4391 22.1113 10.7805 21.6125C11.5453 20.493 13.1658 20.4354 14.0946 21.3953H14.0902Z" fill="#1B737C"/>
<path d="M31.504 21.9369C32.1092 22.2318 32.7121 22.5244 33.3173 22.8192C33.3395 22.8303 33.3661 22.8392 33.386 22.8237C33.4126 22.7993 33.386 22.7572 33.3572 22.735C32.8584 22.316 32.3597 21.897 31.8609 21.4758C32.3175 20.8152 33.2685 20.6533 34.0001 20.8795C34.4568 21.0213 34.8646 21.3206 35.1373 21.7152C35.41 22.1076 35.543 22.5798 35.6627 23.0409C35.7514 23.3846 35.8334 23.7282 35.9176 24.0718C35.9464 24.1959 35.9753 24.329 35.9243 24.4464C35.86 24.5928 35.6915 24.6571 35.5386 24.7058C34.9422 24.8943 34.3215 25.0361 33.6964 25.0073C33.0713 24.9785 32.4372 24.7657 31.9939 24.3245C31.3843 23.7215 31.2202 22.7439 31.5062 21.9369H31.504Z" fill="#756626"/>
<path d="M19.5568 17.4023C19.5546 17.4289 19.5591 17.4599 19.5679 17.4843C19.7253 17.8922 19.8849 18.3001 20.0423 18.708C19.65 18.8211 19.2177 18.7967 18.8475 18.6238C18.4773 18.4509 18.1802 18.125 18.0561 17.737C17.9452 17.3912 17.9718 17.0188 18.0117 16.6596C18.045 16.3692 18.0849 16.0788 18.1359 15.7906C18.28 14.9482 19.1334 15.4315 19.6677 15.6465C20.1243 15.8305 20.5899 16.0766 20.8382 16.5022C21.2061 17.1274 20.9734 17.9742 20.468 18.493C20.182 18.1072 19.8982 17.7237 19.6123 17.338C19.5768 17.3336 19.5591 17.3646 19.5568 17.4045V17.4023Z" fill="#95B830"/>
<path d="M18.5936 23.9492C18.434 24.417 18.2899 24.8426 18.1458 25.2705C18.1724 25.2838 18.1968 25.2971 18.2234 25.3104C18.4827 24.9446 18.7443 24.5766 19.0037 24.2108C19.7397 24.6874 19.815 25.8535 19.1411 26.5718C18.6401 27.1039 17.9795 27.3588 17.279 27.4962C17.1748 27.5162 16.9553 27.3876 16.9265 27.2879C16.7824 26.8046 16.6184 26.3102 16.5874 25.8136C16.5076 24.5212 17.1859 23.8894 18.5936 23.9514V23.9492Z" fill="#81B425"/>
<path d="M25.908 18.7192C26.1008 18.2448 26.2759 17.7637 26.4289 17.276C26.0942 17.6307 25.8215 18.0386 25.5511 18.4465C25.0146 18.0763 24.8372 17.3048 25.07 16.6952C25.4203 15.7796 26.4223 15.4293 27.3156 15.3052C27.3932 15.2941 27.4775 15.2852 27.5484 15.3163C27.6814 15.3739 27.7235 15.5402 27.7501 15.6843C27.8188 16.0656 27.8876 16.4447 27.9208 16.8304C27.9563 17.2649 27.9408 17.7283 27.7058 18.094C27.3445 18.6616 26.5686 18.8278 25.9057 18.7192H25.908Z" fill="#4B196A"/>
<path d="M26.8606 24.2237C27.1266 24.5917 27.3904 24.9575 27.6565 25.3255C27.6808 25.3122 27.7074 25.3011 27.7318 25.2878C27.5855 24.8666 27.4414 24.4454 27.2951 24.022C28.4279 23.7426 29.2814 24.4786 29.2725 25.7112C29.2703 26.0504 29.1993 26.3962 29.1151 26.7288C28.8801 27.6554 28.8424 27.6665 27.9291 27.3318C26.8274 26.9283 26.251 26.2521 26.3286 25.3521C26.3618 24.9663 26.5458 24.5939 26.6633 24.2148C26.7298 24.217 26.7963 24.2215 26.8628 24.2237H26.8606Z" fill="#1887C5"/>
<path d="M23.1577 9.78414C23.1177 9.34519 23.0845 8.9661 23.049 8.58702C23.0113 8.58702 22.9737 8.58702 22.936 8.58702C22.8828 8.97719 22.8318 9.36514 22.7741 9.78192C22.1579 9.59349 21.7522 9.21661 21.6547 8.62692C21.4684 7.50295 22.2022 6.80685 22.9448 6.06641C23.7052 6.68492 24.337 7.36772 24.3193 8.38971C24.3082 9.07252 23.8759 9.52919 23.1577 9.78857V9.78414Z" fill="#9BBC2E"/>
<path d="M23.1577 17.8584C23.1177 17.4194 23.0845 17.0403 23.049 16.6612C23.0113 16.6612 22.9737 16.6612 22.936 16.6612C22.8828 17.0514 22.8318 17.4394 22.7741 17.8561C22.1579 17.6677 21.7522 17.2908 21.6547 16.7011C21.4684 15.5772 22.2022 14.8811 22.9448 14.1406C23.7052 14.7591 24.337 15.4419 24.3193 16.4639C24.3082 17.1467 23.8759 17.6034 23.1577 17.8628V17.8584Z" fill="#1B737C"/>
<path d="M33.5853 11.6934C33.4744 12.3961 33.45 13.1055 32.7739 13.5157C32.3461 13.775 31.9027 13.7196 31.4527 13.4048C31.5968 13.2385 31.7209 13.0967 31.9071 12.8838C31.6677 12.9814 31.5103 13.0457 31.3175 13.1233C31.1579 12.6932 31.2111 12.2897 31.5103 11.986C32.0978 11.3897 32.8182 11.5227 33.5875 11.6934H33.5853Z" fill="#8EA646"/>
<path d="M30.4621 10.2573C30.4022 10.6364 30.3889 11.0177 30.0254 11.2394C29.7948 11.379 29.5554 11.3502 29.3138 11.1795C29.3913 11.0886 29.4579 11.0132 29.5576 10.898C29.429 10.9512 29.3426 10.9844 29.2406 11.0265C29.1541 10.7938 29.183 10.5787 29.3448 10.4147C29.6596 10.0932 30.0475 10.1664 30.4643 10.2573H30.4621Z" fill="#739F39"/>
<path d="M15.0475 10.1406C15.4288 10.1761 15.8123 10.165 16.0539 10.5153C16.2069 10.737 16.1936 10.9764 16.0384 11.2291C15.9431 11.156 15.8633 11.0961 15.7414 11.003C15.8012 11.1294 15.8411 11.2114 15.8899 11.3111C15.6638 11.4131 15.4465 11.3976 15.2736 11.2469C14.9322 10.952 14.9788 10.5596 15.0453 10.1406H15.0475Z" fill="#739F39"/>
<path d="M12.4329 11.6573C13.2065 11.5177 13.8937 11.4223 14.4568 11.9655C14.8004 12.298 14.847 12.7281 14.7117 13.2247C14.4967 13.0762 14.3282 12.9587 14.1575 12.8389C14.142 12.8545 14.1243 12.87 14.1088 12.8855C14.2373 13.0385 14.3659 13.1914 14.5122 13.3666C14.1309 13.7035 13.7097 13.708 13.3152 13.5262C12.5371 13.167 12.6146 12.3845 12.4329 11.6551V11.6573Z" fill="#777924"/>
<path d="M8.41931 20.2907C8.86711 19.7342 9.30603 19.2221 10.0642 19.2576C10.5208 19.2798 10.8245 19.568 10.9908 20.0402C10.8002 20.0912 10.6494 20.1311 10.4056 20.1953C10.6361 20.253 10.7824 20.2907 10.9731 20.3372C10.8888 20.7806 10.6206 21.0799 10.2016 21.1575C9.42796 21.3038 8.92474 20.8338 8.41931 20.2907Z" fill="#32682C"/>
<path d="M37.4178 20.3687C36.899 20.9008 36.398 21.3574 35.6377 21.2111C35.212 21.1291 34.9815 20.821 34.8795 20.3554C35.0768 20.3266 35.2475 20.3022 35.416 20.2778C35.4226 20.2579 35.4293 20.2379 35.4359 20.218C35.283 20.1803 35.1322 20.1426 34.9394 20.096C34.9704 19.7059 35.1899 19.4243 35.5579 19.3534C36.4158 19.1893 36.919 19.7435 37.4178 20.3687Z" fill="#F96E1E"/>
<path d="M17.1876 21.7682C17.099 22.1894 16.8618 22.4089 16.5071 22.4377C15.9019 22.4865 15.5029 22.1274 15.1349 21.6707C15.4608 21.234 15.7911 20.8261 16.394 20.8615C16.7753 20.8837 17.0724 21.0588 17.1899 21.4933C17.0214 21.5421 16.8729 21.5865 16.6667 21.6463C16.8662 21.6929 17.0081 21.7261 17.1876 21.7682Z" fill="#307E47"/>
<path d="M8.01733 12.4498C8.70233 12.4144 9.30308 12.4388 9.6489 13.0351C9.75753 13.2213 9.71097 13.5006 9.71762 13.7379C9.71762 13.7489 9.53806 13.7622 9.41614 13.78C9.42944 13.8465 9.45161 13.9462 9.49372 14.148C9.17229 14.0926 8.87524 14.1125 8.65577 13.9928C8.07054 13.6713 8.05945 13.075 8.01733 12.4498Z" fill="#F96E1E"/>
<path d="M30.7407 21.6779C30.3506 22.1368 29.9582 22.5158 29.384 22.4383C29.1335 22.405 28.9141 22.1301 28.5793 21.8929C28.8941 21.7732 29.0404 21.7156 29.2001 21.6557C29.0515 21.6069 28.9185 21.5648 28.7656 21.5138C28.8343 21.1303 29.0626 20.9396 29.3996 20.9108C29.9937 20.8598 30.355 21.2434 30.7407 21.6779Z" fill="#6B6E1C"/>
<path d="M15.5041 25.627C15.4775 25.7179 15.4575 25.7755 15.442 25.8332C15.4309 25.8753 15.4287 25.9196 15.4864 26.0105C15.5396 25.913 15.5928 25.8176 15.6659 25.6846C15.9563 26.0349 16.0051 26.3674 15.8277 26.68C15.5506 27.17 15.0696 27.303 14.5464 27.3141C14.1541 26.3453 14.5908 25.5295 15.5041 25.6248V25.627Z" fill="#756626"/>
<path d="M30.2513 25.9125C30.3444 25.9613 30.4352 26.01 30.5483 26.0721C30.5306 25.9679 30.515 25.877 30.4995 25.7861C31.2976 25.642 31.6434 26.1985 31.4262 27.2648C30.4485 27.3136 29.9054 26.7061 30.2513 25.9125Z" fill="#6EA93E"/>
<path d="M30.867 14.2307C30.601 14.5255 30.4857 14.7538 30.3061 14.8314C30.0312 14.9467 29.783 14.796 29.712 14.4967C29.6411 14.1908 29.8229 13.9602 30.111 13.9402C30.3039 13.9269 30.5056 14.0843 30.867 14.2307Z" fill="#1B5A45"/>
<path d="M35.7866 26.8272C35.392 26.7806 35.1393 26.8183 34.973 26.7163C34.7181 26.5589 34.6981 26.2685 34.9043 26.038C35.1127 25.803 35.4053 25.8163 35.5871 26.0424C35.709 26.1909 35.6979 26.4481 35.7866 26.8272Z" fill="#6EA93E"/>
<path d="M25.4806 20.8994C25.086 20.8529 24.8333 20.8906 24.667 20.7886C24.4121 20.6312 24.3921 20.3408 24.5983 20.1102C24.8067 19.8752 25.0993 19.8885 25.2811 20.1147C25.403 20.2632 25.3919 20.5203 25.4806 20.8994Z" fill="#4E5069"/>
<path d="M20.2042 20.0131C20.4503 19.7005 20.55 19.4655 20.7252 19.3768C20.9934 19.2416 21.2506 19.3768 21.3392 19.6717C21.4301 19.9732 21.2661 20.2148 20.9801 20.2525C20.7895 20.2769 20.5766 20.135 20.2064 20.0131H20.2042Z" fill="#95B830"/>
<path d="M10.6636 13.689C10.8742 13.3542 10.9495 13.1081 11.1136 13.0017C11.3663 12.8399 11.6368 12.9463 11.7565 13.2301C11.8784 13.5205 11.7387 13.7776 11.4594 13.8464C11.2732 13.8907 11.0449 13.7732 10.6636 13.689Z" fill="#1B737C"/>
<path d="M8.37317 26.8904C8.69017 26.3849 8.80323 26.0169 9.05151 25.8573C9.43058 25.6156 9.83626 25.7753 10.0158 26.2009C10.1998 26.6376 9.99144 27.0234 9.56803 27.1253C9.28649 27.1941 8.94732 27.0145 8.37317 26.8881V26.8904Z" fill="#97BD27"/>
<path d="M10.0803 62.1498H6.34276C6.12108 61.9858 5.90161 61.733 5.68658 61.3894C5.47155 61.0458 5.36515 60.6512 5.36515 60.2034C5.36515 59.6802 5.51367 59.2568 5.81072 58.9287C6.10778 58.6006 6.52232 58.4365 7.05657 58.4365C7.39796 58.4365 7.70609 58.5075 7.97876 58.6471C8.25364 58.789 8.50858 58.9708 8.74578 59.1925C8.84997 59.2967 8.96746 59.2967 9.10268 59.1925L10.036 58.2813C10.0648 58.237 10.0869 58.1927 10.1025 58.1483C10.118 58.104 10.0958 58.0375 10.036 57.9488C9.7389 57.5342 9.3288 57.2039 8.8012 56.9578C8.2736 56.714 7.68614 56.5898 7.03219 56.5898C6.37823 56.5898 5.77082 56.6985 5.29643 56.9135C4.82203 57.1285 4.43187 57.4079 4.12817 57.7515C3.82447 58.0951 3.60057 58.4809 3.46091 58.9132C3.31904 59.3454 3.25032 59.7689 3.25032 60.1856C3.25032 60.6024 3.29909 60.9527 3.39441 61.2808C3.48973 61.6089 3.62052 61.8993 3.78457 62.152H2.49439C2.34586 62.152 2.27271 62.2318 2.27271 62.3937V63.7571C2.27271 63.9189 2.34586 63.9987 2.49439 63.9987H10.0803C10.2288 63.9987 10.302 63.9189 10.302 63.7571V62.3937C10.302 62.2318 10.2266 62.152 10.0803 62.152V62.1498Z" fill="#BBD8C9"/>
<path d="M44.3515 61.7717H39.5255C39.4058 61.7274 39.2462 61.6431 39.0467 61.5168C38.8472 61.3904 38.6543 61.2175 38.4681 60.9958C38.2819 60.7741 38.1201 60.5059 37.9782 60.1866C37.8363 59.8696 37.7676 59.4883 37.7676 59.0449C37.7676 58.2912 37.9716 57.6949 38.3795 57.2515C38.7873 56.8081 39.3682 56.5864 40.1263 56.5864C41.0463 56.5864 41.831 56.9433 42.485 57.655C42.5892 57.7747 42.6934 57.7813 42.7976 57.6771L43.9991 56.4312C44.1188 56.3426 44.1387 56.2384 44.0656 56.1186C43.6798 55.6154 43.1456 55.1964 42.4628 54.8617C41.78 54.5269 40.951 54.3607 39.9711 54.3607C39.0667 54.3607 38.3063 54.5025 37.6922 54.7819C37.076 55.0634 36.5794 55.4225 36.2026 55.8571C35.8235 56.2938 35.553 56.7815 35.3912 57.3202C35.2272 57.8589 35.1474 58.3887 35.1474 58.9053C35.1474 59.557 35.2427 60.1113 35.4355 60.568C35.6284 61.0268 35.8722 61.4259 36.1693 61.7651H33.6333C33.0702 61.7651 32.6246 61.6476 32.2988 61.4104C31.9729 61.1732 31.8022 60.834 31.7867 60.3906C31.7867 60.3019 31.7911 60.1955 31.7978 60.0692C31.8044 59.9428 31.8088 59.8076 31.8088 59.659C31.8088 58.8609 31.7091 58.1338 31.5074 57.4754C31.3056 56.817 30.9864 56.2583 30.5497 55.8016C30.1108 55.3427 29.5499 54.988 28.8671 54.7375C28.1844 54.487 27.3509 54.3607 26.371 54.3607C25.4644 54.3607 24.5909 54.4826 23.7508 54.7287C22.9106 54.9747 22.1347 55.2674 21.4209 55.6065V49.0889C21.4209 48.9403 21.3477 48.8672 21.2014 48.8672H19.1509C19.0046 48.8672 18.9314 48.9403 18.9314 49.0889V59.0826C18.9314 59.6169 18.9203 60.0558 18.8982 60.4039C18.876 60.752 18.8272 61.0269 18.7541 61.2264C18.6809 61.4259 18.5657 61.5678 18.4105 61.6476C18.2553 61.7296 18.0425 61.7695 17.7765 61.7695H16.6636C16.6636 61.7695 16.6548 61.7695 16.6526 61.7695C16.6481 61.7695 16.6459 61.7695 16.6415 61.7695H15.8634C15.4932 61.7695 15.2227 61.6853 15.052 61.5146C14.8813 61.3439 14.7971 61.0379 14.7971 60.5923V49.0889C14.7971 48.9403 14.7239 48.8672 14.5776 48.8672H12.5271C12.3808 48.8672 12.3076 48.9403 12.3076 49.0889V61.1909C12.3076 62.1552 12.5049 62.8624 12.9017 63.3147C13.2985 63.7669 13.9614 63.9931 14.888 63.9931H16.6459C16.6459 63.9931 16.6526 63.9931 16.657 63.9931C16.6614 63.9931 16.6636 63.9931 16.6681 63.9931H18.4038C18.8339 63.9931 19.2174 63.9753 19.5544 63.9376C19.8913 63.8999 20.1861 63.7935 20.4366 63.614C20.6273 63.8667 20.9576 63.9931 21.4298 63.9931H27.3819C27.8873 63.9931 28.3484 63.9775 28.7652 63.9487C29.1819 63.9199 29.5499 63.8556 29.8691 63.7581C30.1884 63.6605 30.4632 63.5186 30.6938 63.3324C30.9243 63.1462 31.1216 62.8935 31.2857 62.5787C31.5074 63.1484 31.8598 63.5275 32.3431 63.7137C32.8241 63.8999 33.385 63.9953 34.0234 63.9953H44.367C44.5156 63.9953 44.5887 63.9199 44.5887 63.7714V61.9956C44.5887 61.8471 44.5156 61.7717 44.367 61.7717H44.3515ZM29.0689 60.8295C28.9957 61.131 28.8494 61.3527 28.6344 61.4946C28.4194 61.6343 28.1134 61.7163 27.7211 61.7385C27.3265 61.7606 26.8166 61.7717 26.1937 61.7717H21.33C21.3588 61.6254 21.381 61.4702 21.3965 61.3062C21.412 61.1443 21.4187 60.9736 21.4187 60.7963V57.7835C22.0438 57.4887 22.7576 57.216 23.5601 56.9633C24.3626 56.7128 25.1806 56.5864 26.0141 56.5864C26.6393 56.5864 27.1513 56.6529 27.5526 56.7859C27.9538 56.9189 28.2775 57.1118 28.5235 57.3623C28.7696 57.6128 28.9403 57.9232 29.0356 58.2934C29.1332 58.6614 29.1797 59.0826 29.1797 59.5548C29.1797 60.1002 29.142 60.5258 29.0689 60.8295Z" fill="#BBD8C9"/>
<path d="M22.7998 45.5993C10.2283 45.5993 0 35.3705 0 22.7985C0 10.2265 10.2283 0 22.7998 0C35.3713 0 45.5997 10.2287 45.5997 22.8008C45.5997 35.3728 35.3713 45.6015 22.7998 45.6015V45.5993ZM22.7998 1.14392C10.8601 1.14392 1.14609 10.8583 1.14609 22.7985C1.14609 34.7387 10.8601 44.4532 22.7998 44.4532C34.7395 44.4532 44.4536 34.7387 44.4536 22.7985C44.4536 10.8583 34.7395 1.14613 22.7998 1.14613V1.14392Z" fill="#BBD8C9"/>
<path d="M22.7949 43.2751C11.5003 43.2751 2.31165 34.0861 2.31165 22.791C2.31165 11.4959 11.5003 2.30469 22.7949 2.30469C34.0895 2.30469 43.2782 11.4937 43.2782 22.7888C43.2782 34.0839 34.0895 43.2729 22.7949 43.2729V43.2751ZM22.7949 2.68821C11.7109 2.68821 2.69294 11.7065 2.69294 22.791C2.69294 33.8755 11.7109 42.8938 22.7949 42.8938C33.8789 42.8938 42.8969 33.8755 42.8969 22.791C42.8969 11.7065 33.8789 2.68821 22.7949 2.68821Z" fill="#9BBC2E"/>
</svg>
