<svg width="63" height="88" viewBox="0 0 63 88" fill="none" xmlns="http://www.w3.org/2000/svg">
<path d="M41.7289 16.5669C40.3695 17.7379 40.0738 19.7109 40.0494 21.504C40.025 23.2971 40.153 25.1848 39.3423 26.7858C41.1589 26.9596 42.9969 27.1334 44.7983 26.8437C46.5997 26.554 48.3889 25.7459 49.4892 24.2913C49.0625 25.5416 48.0993 26.5967 46.8953 27.1334C45.2006 27.8867 43.2499 27.6061 41.4149 27.8623C39.1533 28.1764 37.0257 29.3596 35.5596 31.11C37.5317 30.3568 39.6867 31.5339 41.3784 32.7994C43.07 34.065 44.8836 35.5348 46.9898 35.425C45.0787 36.0593 43.0822 34.9097 41.3723 33.8484C39.6623 32.7842 37.5744 31.729 35.7303 32.5341C34.5903 33.0312 33.8253 34.1686 33.4778 35.364C33.1303 36.5595 33.1395 37.828 33.1486 39.0722C33.1578 40.1274 33.1669 41.1856 33.1761 42.2407C33.1913 43.8844 33.2949 45.7324 34.5202 46.8271C35.8096 47.9799 37.7634 47.7938 39.4886 47.678C41.2138 47.5621 43.2773 47.7664 44.1307 49.2728C43.2224 48.6568 42.1038 48.358 41.0095 48.4342C41.5125 49.4497 42.4452 50.2456 43.5272 50.5811C43.0395 50.8159 42.4452 50.6116 42.0063 50.2914C41.5673 49.9712 41.2138 49.5412 40.7566 49.2484C39.4794 48.4281 37.806 48.8581 36.3582 49.3155C36.9556 50.1968 38.1535 50.3707 39.2051 50.517C40.2567 50.6634 41.4667 50.9775 41.8904 51.9534C40.9516 51.2337 39.6989 50.9379 38.5345 51.1605C39.3575 52.0174 39.58 53.3958 39.0649 54.4692C39.1777 53.5666 38.7601 52.6639 38.1505 51.99C37.5409 51.316 36.7575 50.8311 35.9833 50.3554C34.9866 49.7425 33.9868 49.1295 32.9901 48.5135C34.1301 50.947 35.3859 53.5147 37.6689 54.9388C36.1875 54.6674 34.8586 53.6611 34.1941 52.3102C33.5753 53.1884 32.8164 53.966 31.9507 54.6034C32.6 53.8563 33.1517 52.9597 33.1974 51.9686C33.2431 50.9806 32.6426 49.9132 31.6795 49.6967C30.1798 50.0078 29.3812 52.0662 30.2774 53.3104C30.6157 53.777 31.1521 54.1887 31.14 54.765C30.4115 53.9599 29.686 53.1518 28.9576 52.3467C28.2565 53.594 27.0434 54.5454 25.6657 54.9297C27.5829 53.0634 29.116 50.8037 30.1432 48.3305C29.1039 49.4406 27.6225 49.9986 26.3393 50.8159C25.056 51.6332 23.8673 52.9688 24.0441 54.4784C23.5229 53.4232 23.6966 52.0662 24.4617 51.1727C23.34 50.8921 22.0812 51.255 21.2826 52.0875C21.4136 51.0233 22.6877 50.5567 23.7545 50.4408C24.8183 50.3249 26.068 50.2334 26.6471 49.3308C25.6382 48.6873 24.3337 48.6325 23.1785 48.9587C22.0263 49.285 20.9991 49.9529 20.0451 50.6756C20.7431 49.9803 21.438 49.2881 22.136 48.5928C21.1119 48.2818 19.9414 48.5074 19.1093 49.1753C20.0694 47.6566 22.2092 47.5438 24.0014 47.6475C25.7967 47.7542 27.8938 47.7816 29.0155 46.3758C29.5885 45.6592 29.7653 44.7108 29.8811 43.799C30.1463 41.7253 30.1981 39.6242 30.0396 37.5383C29.8964 35.6751 29.4178 33.574 27.7932 32.65C26.0009 31.6284 23.7515 32.5463 21.9714 33.5892C20.1914 34.6322 18.2254 35.855 16.2167 35.3793C17.4786 35.5074 18.707 34.9188 19.7403 34.1808C20.7735 33.4429 21.691 32.5433 22.7853 31.9029C24.1904 31.0825 25.8668 30.7288 27.4823 30.9087C25.9491 29.2406 23.8277 28.1276 21.5843 27.8104C19.725 27.5482 17.7438 27.8043 16.0338 27.0236C14.8298 26.4717 13.8667 25.4135 13.4338 24.1602C14.5647 25.6483 16.3935 26.4747 18.2376 26.7736C20.0816 27.0724 21.9653 26.9017 23.8246 26.7278C22.8889 25.2488 22.9986 23.3703 23.023 21.6199C23.0443 20.2049 22.962 18.6497 22.1695 17.4268C22.0141 17.1859 21.7855 16.9938 21.63 16.7621C21.8983 16.7834 22.2457 17.1249 22.4317 17.3049C22.6694 17.5366 22.8676 17.805 23.0352 18.0886C23.3827 18.6863 23.5899 19.3572 23.7149 20.0342C23.7545 20.2568 23.7881 20.4825 23.8094 20.7081C23.9679 22.2878 23.849 23.9436 24.483 25.3983C25.2481 27.1487 26.9489 28.2617 28.3449 29.5669C29.6952 30.8294 30.8138 32.345 31.6215 34.0101C32.4872 30.2195 37.425 28.6643 38.7662 25.011C39.3057 23.5381 39.1807 21.9188 39.3819 20.3635C39.58 18.8083 40.2719 17.1249 41.7319 16.5547L41.7289 16.5669Z" fill="#BBD8C9"/>
<path d="M29.4247 18.8642C28.6992 17.7786 27.9646 16.7021 27.2148 15.6348C27.291 16.1014 27.4587 16.5466 27.6263 16.9918C27.922 17.7786 28.2176 18.5623 28.5133 19.3491C27.4617 19.6357 26.2852 19.4406 25.383 18.8276C24.4807 18.2147 23.865 17.1961 23.7401 16.1105C23.6578 15.3725 23.7919 14.6254 23.9534 13.8996C24.1058 13.2165 24.2857 12.5395 24.4624 11.8656C24.5844 11.4051 24.7063 11.2252 25.1665 11.335C25.6817 11.4539 26.1937 11.646 26.6936 11.8137C28.0256 12.262 29.4247 12.8506 30.1653 14.0429C30.6286 14.787 30.778 15.708 30.6256 16.574C30.4732 17.4401 30.0312 18.2391 29.4216 18.8673L29.4247 18.8642Z" fill="#1B4935"/>
<path d="M33.8652 18.7111L33.8469 18.7355C33.0727 18.0432 32.6094 17.0125 32.6094 15.9726C32.6094 14.9327 33.0727 13.902 33.8469 13.2098C34.9137 12.2583 36.4713 11.8863 37.785 11.4105C37.9465 11.3526 38.1263 11.2916 38.2879 11.3496C38.4677 11.4136 38.5744 11.5966 38.6567 11.7704C39.0103 12.5023 39.2602 13.2829 39.4004 14.0819C39.5254 14.7985 39.562 15.5365 39.434 16.2501C39.309 16.9667 39.0133 17.659 38.5348 18.2048C37.6082 19.26 36.0506 19.6381 34.682 19.3271C35.0966 18.2109 35.5111 17.0979 35.9226 15.9818C35.95 15.9116 35.9439 15.7957 35.8677 15.8018C35.2002 16.7716 34.5296 17.7444 33.8621 18.7141L33.8652 18.7111Z" fill="#596825"/>
<path d="M44.4945 22.8185C44.4701 22.8124 44.4396 22.8185 44.4152 22.8246C43.4185 23.1326 42.4248 23.4376 41.4281 23.7456C41.1965 22.971 41.3306 22.105 41.7238 21.3975C42.0957 20.7296 42.7297 20.1167 43.4307 19.8026C44.1988 19.458 45.1742 19.4732 45.9911 19.6013C46.8262 19.7324 47.6309 20.0191 48.399 20.3728C48.6368 20.4826 48.8989 20.629 48.9629 20.8852C49.0086 21.0651 48.9416 21.2511 48.8745 21.4249C48.7556 21.7421 48.6337 22.0592 48.5118 22.3733C48.0546 23.5535 47.5029 24.7855 46.4483 25.4869C45.7381 25.9565 44.8419 26.1334 44.0007 25.9809C43.1625 25.8315 42.3852 25.3618 41.8488 24.7001C42.7266 24.1146 43.6014 23.5291 44.4792 22.9466C44.5128 22.9253 44.5524 22.8887 44.5371 22.8521C44.5311 22.8338 44.5158 22.8246 44.4975 22.8216L44.4945 22.8185Z" fill="#A1B455"/>
<path d="M13.8086 20.841C15.4149 19.914 16.8841 19.4016 18.5209 19.5511C20.5478 19.7371 21.9469 21.5363 21.6634 23.6679C20.6606 23.3751 19.6639 23.0854 18.6702 22.7957C18.655 22.8354 18.6367 22.872 18.6215 22.9116C19.4719 23.4453 20.3223 23.9789 21.2214 24.5431C21.127 24.6986 21.0751 24.845 20.9746 24.9456C19.4018 26.5527 16.8018 26.3057 15.4881 24.3052C14.7962 23.2532 14.3694 22.0242 13.8086 20.841Z" fill="#4F813A"/>
<path d="M19.4042 29.4406C18.6879 30.0261 17.9747 30.6147 17.2614 31.2032C17.3376 31.2551 17.4443 31.2185 17.5266 31.1788C18.2917 30.8312 19.0567 30.4836 19.8248 30.1359C20.1022 30.8586 20.1205 31.682 19.8462 32.4047C19.5718 33.1275 19.0049 33.7404 18.2917 34.0393C17.487 34.3778 16.5726 34.3076 15.71 34.1796C15.2223 34.1064 14.7376 34.0179 14.253 33.9295C14.0671 33.8959 13.8598 33.8502 13.7531 33.6916C13.6373 33.5239 13.6769 33.2982 13.7226 33.1031C13.8019 32.7554 13.8811 32.4078 13.9665 32.0601C14.1616 31.249 14.3841 30.4256 14.8535 29.7395C15.905 28.1995 18.1332 28.1202 19.4103 29.4406H19.4042Z" fill="#1B737C"/>
<path d="M43.2878 30.1613C44.1199 30.5668 44.949 30.9694 45.7811 31.375C45.8116 31.3902 45.8482 31.4024 45.8756 31.3811C45.9122 31.3475 45.8756 31.2896 45.836 31.2591C45.1502 30.6827 44.4644 30.1064 43.7786 29.527C44.4065 28.6182 45.7141 28.3956 46.7199 28.7066C47.3478 28.9018 47.9087 29.3135 48.2836 29.8563C48.6585 30.3961 48.8414 31.0456 49.006 31.6799C49.1279 32.1526 49.2407 32.6252 49.3565 33.0979C49.3961 33.2687 49.4357 33.4517 49.3656 33.6133C49.2772 33.8146 49.0456 33.903 48.8353 33.9701C48.0153 34.2293 47.1619 34.4245 46.3023 34.3848C45.4428 34.3452 44.571 34.0524 43.9614 33.4456C43.1232 32.6161 42.8977 31.2713 43.2909 30.1613H43.2878Z" fill="#756626"/>
<path d="M26.9071 23.9147C26.9041 23.9513 26.9102 23.994 26.9224 24.0275C27.1388 24.5886 27.3582 25.1497 27.5746 25.7108C27.0351 25.8664 26.4408 25.8328 25.9317 25.595C25.4227 25.3571 25.0143 24.9088 24.8436 24.3752C24.6912 23.8994 24.7278 23.3871 24.7826 22.8931C24.8283 22.4936 24.8832 22.0941 24.9533 21.6977C25.1514 20.5389 26.3249 21.2037 27.0595 21.4995C27.6874 21.7526 28.3275 22.0911 28.6689 22.6766C29.1749 23.5365 28.8548 24.7015 28.1599 25.415C27.7667 24.8844 27.3765 24.3569 26.9833 23.8263C26.9345 23.8202 26.9102 23.8628 26.9071 23.9177V23.9147Z" fill="#95B830"/>
<path d="M25.5396 32.9626C25.3202 33.6061 25.122 34.1916 24.9239 34.7801C24.9605 34.7984 24.994 34.8167 25.0306 34.835C25.3872 34.3319 25.7469 33.8257 26.1035 33.3225C27.1155 33.9781 27.2191 35.5822 26.2925 36.5702C25.6036 37.3021 24.6953 37.6528 23.7321 37.8419C23.5889 37.8693 23.2871 37.6924 23.2475 37.5552C23.0494 36.8904 22.8238 36.2104 22.7811 35.5273C22.6714 33.7494 23.6041 32.8803 25.5396 32.9657V32.9626Z" fill="#81B425"/>
<path d="M35.646 25.7309C35.9112 25.0783 36.152 24.4165 36.3623 23.7456C35.902 24.2336 35.5271 24.7947 35.1553 25.3558C34.4176 24.8465 34.1738 23.7853 34.4938 22.9467C34.9754 21.6872 36.3531 21.2054 37.5815 21.0346C37.6882 21.0194 37.804 21.0072 37.9016 21.0499C38.0844 21.1292 38.1424 21.3579 38.1789 21.5561C38.2734 22.0806 38.3679 22.6021 38.4136 23.1327C38.4624 23.7304 38.4411 24.3677 38.118 24.8709C37.6211 25.6516 36.5543 25.8803 35.643 25.7309H35.646Z" fill="#4B196A"/>
<path d="M36.9166 33.3343C37.2824 33.8406 37.6451 34.3437 38.0108 34.8499C38.0444 34.8316 38.081 34.8164 38.1145 34.7981C37.9133 34.2187 37.7152 33.6393 37.514 33.0568C39.0716 32.6726 40.2451 33.685 40.2329 35.3806C40.2298 35.8471 40.1323 36.3228 40.0165 36.7803C39.6934 38.055 39.6416 38.0702 38.3858 37.6097C36.8709 37.0547 36.0784 36.1246 36.1851 34.8865C36.2308 34.3559 36.4838 33.8436 36.6453 33.3221C36.7368 33.3252 36.8282 33.3313 36.9196 33.3343H36.9166Z" fill="#1887C5"/>
<path d="M31.807 13.4343C31.7522 12.8305 31.7065 12.3091 31.6577 11.7876C31.6059 11.7876 31.5541 11.7876 31.5022 11.7876C31.4291 12.3243 31.359 12.858 31.2797 13.4313C30.4324 13.1721 29.8746 12.6537 29.7405 11.8425C29.4844 10.2964 30.4933 9.33885 31.5144 8.32031C32.5599 9.17112 33.4286 10.1104 33.4042 11.5162C33.389 12.4554 32.7946 13.0836 31.807 13.4404V13.4343Z" fill="#9BBC2E"/>
<path d="M31.807 24.6052C31.7522 24.0014 31.7065 23.48 31.6577 22.9585C31.6059 22.9585 31.5541 22.9585 31.5022 22.9585C31.4291 23.4952 31.359 24.0289 31.2797 24.6022C30.4324 24.343 29.8746 23.8246 29.7405 23.0134C29.4844 21.4673 30.4933 20.5097 31.5144 19.4912C32.5599 20.342 33.4286 21.2813 33.4042 22.6871C33.389 23.6263 32.7946 24.2545 31.807 24.6113V24.6052Z" fill="#1B737C"/>
<path d="M46.1995 16.065C46.0471 17.0317 46.0136 18.0076 45.0839 18.5717C44.4956 18.9285 43.886 18.8523 43.2673 18.4193C43.4654 18.1905 43.6361 17.9954 43.8921 17.7026C43.5629 17.8368 43.3465 17.9252 43.0813 18.032C42.8619 17.4404 42.935 16.8854 43.3465 16.4676C44.1543 15.6473 45.1449 15.8302 46.2025 16.065H46.1995Z" fill="#8EA646"/>
<path d="M41.9197 14.1341C41.8374 14.6555 41.8191 15.1801 41.3192 15.485C41.0022 15.6771 40.673 15.6375 40.3408 15.4027C40.4475 15.2776 40.5389 15.174 40.6761 15.0154C40.4993 15.0886 40.3804 15.1343 40.2402 15.1923C40.1213 14.8721 40.1609 14.5763 40.3835 14.3506C40.8163 13.9084 41.3497 14.0091 41.9227 14.1341H41.9197Z" fill="#739F39"/>
<path d="M20.6958 13.9883C21.2201 14.0371 21.7474 14.0218 22.0797 14.5036C22.29 14.8086 22.2717 15.1379 22.0583 15.4856C21.9273 15.385 21.8175 15.3026 21.6499 15.1745C21.7322 15.3484 21.787 15.4612 21.8541 15.5984C21.5432 15.7387 21.2445 15.7174 21.0067 15.51C20.5373 15.1044 20.6013 14.5646 20.6928 13.9883H20.6958Z" fill="#739F39"/>
<path d="M17.1238 16.0155C18.1875 15.8234 19.1324 15.6922 19.9067 16.4394C20.3791 16.8968 20.4431 17.4884 20.2572 18.1715C19.9615 17.9672 19.7299 17.8055 19.4952 17.6409C19.4738 17.6622 19.4494 17.6836 19.4281 17.7049C19.6049 17.9153 19.7817 18.1257 19.9829 18.3666C19.4586 18.8302 18.8795 18.8363 18.3369 18.5862C17.267 18.0922 17.3737 17.0157 17.1238 16.0124V16.0155Z" fill="#777924"/>
<path d="M11.6101 27.9078C12.2258 27.1424 12.8293 26.438 13.8718 26.4868C14.4997 26.5173 14.9172 26.9137 15.1458 27.5632C14.8837 27.6334 14.6764 27.6883 14.3412 27.7767C14.6582 27.856 14.8593 27.9078 15.1215 27.9719C15.0056 28.5818 14.6368 28.9935 14.0607 29.1002C12.997 29.3015 12.3051 28.655 11.6101 27.9078Z" fill="#32682C"/>
<path d="M51.419 27.9905C50.7057 28.7224 50.0169 29.3506 48.9714 29.1493C48.3862 29.0365 48.0692 28.6126 47.929 27.9722C48.2002 27.9325 48.4349 27.899 48.6666 27.8655C48.6757 27.838 48.6849 27.8106 48.694 27.7831C48.4837 27.7313 48.2764 27.6794 48.0113 27.6154C48.0539 27.0787 48.3557 26.6914 48.8617 26.5938C50.0413 26.3681 50.7332 27.1305 51.419 27.9905Z" fill="#F96E1E"/>
<path d="M23.5896 29.9016C23.4677 30.481 23.1415 30.7829 22.6538 30.8225C21.8217 30.8896 21.2731 30.3956 20.7671 29.7674C21.2152 29.1666 21.6693 28.6055 22.4984 28.6543C23.0226 28.6848 23.4311 28.9257 23.5926 29.5234C23.361 29.5905 23.1568 29.6515 22.8733 29.7339C23.1476 29.7979 23.3427 29.8436 23.5896 29.9016Z" fill="#307E47"/>
<path d="M11.019 17.1481C11.9609 17.0993 12.7869 17.1328 13.2624 17.9531C13.4118 18.2093 13.3478 18.5935 13.3569 18.9198C13.3569 18.9351 13.11 18.9534 12.9424 18.9778C12.9606 19.0693 12.9911 19.2065 13.049 19.484C12.6071 19.4078 12.1986 19.4352 11.8969 19.2705C11.0922 18.8284 11.077 18.008 11.019 17.1481Z" fill="#F96E1E"/>
<path d="M42.2502 29.8524C41.7137 30.4837 41.1742 31.0051 40.3848 30.8984C40.0403 30.8527 39.7386 30.4745 39.2783 30.1482C39.7111 29.9836 39.9123 29.9043 40.1318 29.8219C39.9276 29.7548 39.7447 29.6969 39.5344 29.6268C39.6288 29.0992 39.9428 28.8369 40.4061 28.7973C41.223 28.7272 41.7198 29.2547 42.2502 29.8524Z" fill="#6B6E1C"/>
<path d="M21.359 35.2069C21.3224 35.3319 21.295 35.4112 21.2736 35.4905C21.2584 35.5484 21.2553 35.6094 21.3346 35.7344C21.4077 35.6002 21.4809 35.4691 21.5815 35.2861C21.9808 35.768 22.0478 36.2254 21.804 36.6554C21.423 37.3293 20.7615 37.5123 20.0422 37.5275C19.5027 36.1949 20.1032 35.0727 21.359 35.2038V35.2069Z" fill="#756626"/>
<path d="M41.5546 35.6373C41.6826 35.7044 41.8076 35.7715 41.963 35.8569C41.9387 35.7136 41.9173 35.5885 41.896 35.4635C42.9933 35.2653 43.4688 36.0307 43.1701 37.4975C41.8259 37.5646 41.0791 36.729 41.5546 35.6373Z" fill="#6EA93E"/>
<path d="M42.4754 19.5978C42.1096 20.0034 41.9511 20.3175 41.7042 20.4243C41.3263 20.5828 40.9849 20.3755 40.8873 19.9638C40.7898 19.5429 41.0397 19.2258 41.436 19.1984C41.7012 19.1801 41.9785 19.3966 42.4754 19.5978Z" fill="#1B5A45"/>
<path d="M49.2152 36.8576C48.6726 36.7936 48.3251 36.8454 48.0965 36.7052C47.746 36.4886 47.7186 36.0892 48.002 35.772C48.2885 35.4488 48.6909 35.4671 48.9408 35.7781C49.1085 35.9824 49.0932 36.3362 49.2152 36.8576Z" fill="#6EA93E"/>
<path d="M35.0623 28.7707C34.5198 28.7067 34.1723 28.7585 33.9437 28.6182C33.5932 28.4017 33.5657 28.0022 33.8492 27.6851C34.1357 27.3618 34.5381 27.3801 34.788 27.6912C34.9556 27.8955 34.9404 28.2493 35.0623 28.7707Z" fill="#4E5069"/>
<path d="M27.8069 27.5013C28.1452 27.0713 28.2824 26.748 28.5232 26.6261C28.892 26.44 29.2456 26.6261 29.3675 27.0316C29.4925 27.4464 29.2669 27.7788 28.8737 27.8306C28.6116 27.8642 28.319 27.669 27.8099 27.5013H27.8069Z" fill="#95B830"/>
<path d="M14.6973 18.8555C14.9868 18.395 15.0905 18.0565 15.316 17.9101C15.6635 17.6875 16.0354 17.8339 16.2 18.2242C16.3676 18.6237 16.1756 18.9774 15.7915 19.072C15.5355 19.133 15.2215 18.9713 14.6973 18.8555Z" fill="#1B737C"/>
<path d="M11.4712 36.9898C11.9071 36.2945 12.0625 35.7883 12.4039 35.5687C12.9251 35.2363 13.4829 35.4559 13.7298 36.0414C13.9828 36.6422 13.6963 37.1728 13.1141 37.313C12.727 37.4076 12.2606 37.1606 11.4712 36.9867V36.9898Z" fill="#97BD27"/>
<path d="M13.8539 85.4568H8.71487C8.41007 85.2311 8.10831 84.8835 7.81265 84.4108C7.51699 83.9381 7.37068 83.3953 7.37068 82.7793C7.37068 82.0596 7.5749 81.4771 7.98334 81.0258C8.39178 80.5745 8.96176 80.3488 9.69634 80.3488C10.1657 80.3488 10.5894 80.4464 10.9643 80.6385C11.3423 80.8337 11.6928 81.0838 12.019 81.3887C12.1622 81.532 12.3238 81.532 12.5097 81.3887L13.7929 80.1354C13.8325 80.0744 13.863 80.0134 13.8844 79.9524C13.9057 79.8914 13.8752 79.7999 13.7929 79.6779C13.3845 79.1077 12.8206 78.6533 12.0952 78.3148C11.3697 77.9794 10.562 77.8086 9.66281 77.8086C8.76364 77.8086 7.92847 77.958 7.27619 78.2538C6.62391 78.5496 6.08745 78.9339 5.66987 79.4065C5.25229 79.8792 4.94443 80.4098 4.75241 81.0045C4.55733 81.5991 4.46284 82.1816 4.46284 82.7549C4.46284 83.3282 4.5299 83.81 4.66097 84.2614C4.79203 84.7127 4.97187 85.1122 5.19742 85.4598H3.42346C3.21924 85.4598 3.11865 85.5696 3.11865 85.7922V87.6676C3.11865 87.8903 3.21924 88 3.42346 88H13.8539C14.0581 88 14.1587 87.8903 14.1587 87.6676V85.7922C14.1587 85.5696 14.0551 85.4598 13.8539 85.4598V85.4568Z" fill="#BBD8C9"/>
<path d="M60.9678 84.9269H54.3321C54.1676 84.866 53.9481 84.7501 53.6738 84.5763C53.3994 84.4024 53.1343 84.1646 52.8782 83.8596C52.6222 83.5547 52.3997 83.1857 52.2046 82.7466C52.0095 82.3105 51.915 81.786 51.915 81.1761C51.915 80.1392 52.1955 79.3189 52.7563 78.709C53.3172 78.0991 54.1157 77.7942 55.1582 77.7942C56.4231 77.7942 57.5021 78.2851 58.4013 79.264C58.5446 79.4287 58.6878 79.4378 58.8311 79.2945L60.4831 77.5807C60.6477 77.4587 60.6751 77.3154 60.5746 77.1507C60.0442 76.4585 59.3096 75.8821 58.3708 75.4216C57.432 74.9612 56.292 74.7325 54.9448 74.7325C53.7012 74.7325 52.6557 74.9276 51.8114 75.3119C50.9641 75.6991 50.2813 76.1932 49.7631 76.7909C49.2419 77.3916 48.87 78.0625 48.6475 78.8035C48.422 79.5446 48.3123 80.2734 48.3123 80.9839C48.3123 81.8805 48.4433 82.6429 48.7085 83.2711C48.9737 83.9023 49.309 84.4512 49.7174 84.9178H46.2304C45.4562 84.9178 44.8436 84.7562 44.3955 84.4299C43.9474 84.1036 43.7127 83.637 43.6914 83.0271C43.6914 82.9051 43.6975 82.7588 43.7067 82.5849C43.7158 82.4111 43.7219 82.2251 43.7219 82.0208C43.7219 80.9229 43.5847 79.9227 43.3074 79.017C43.03 78.1113 42.5911 77.3428 41.9906 76.7146C41.3871 76.0834 40.6159 75.5955 39.6771 75.2509C38.7383 74.9063 37.5923 74.7325 36.245 74.7325C34.9984 74.7325 33.7974 74.9002 32.6422 75.2387C31.487 75.5772 30.4202 75.9797 29.4387 76.4463V67.4807C29.4387 67.2764 29.3381 67.1758 29.137 67.1758H26.3175C26.1164 67.1758 26.0158 67.2764 26.0158 67.4807V81.2279C26.0158 81.9628 26.0005 82.5666 25.9701 83.0454C25.9396 83.5242 25.8725 83.9023 25.7719 84.1768C25.6713 84.4512 25.5128 84.6464 25.2995 84.7562C25.0861 84.869 24.7935 84.9239 24.4277 84.9239H22.8976C22.8976 84.9239 22.8854 84.9239 22.8824 84.9239C22.8763 84.9239 22.8732 84.9239 22.8671 84.9239H21.7973C21.2882 84.9239 20.9164 84.808 20.6817 84.5732C20.447 84.3384 20.3312 83.9176 20.3312 83.3046V67.4807C20.3312 67.2764 20.2306 67.1758 20.0294 67.1758H17.21C17.0088 67.1758 16.9082 67.2764 16.9082 67.4807V84.128C16.9082 85.4545 17.1795 86.4273 17.7251 87.0494C18.2707 87.6715 19.182 87.9825 20.4561 87.9825H22.8732C22.8732 87.9825 22.8824 87.9825 22.8885 87.9825C22.8946 87.9825 22.8976 87.9825 22.9037 87.9825H25.2903C25.8817 87.9825 26.409 87.9582 26.8723 87.9063C27.3356 87.8545 27.741 87.7081 28.0854 87.4611C28.3475 87.8087 28.8017 87.9825 29.4509 87.9825H37.6349C38.3299 87.9825 38.9639 87.9612 39.5369 87.9216C40.11 87.8819 40.6159 87.7935 41.0548 87.6593C41.4938 87.5251 41.8717 87.33 42.1887 87.0738C42.5057 86.8176 42.777 86.47 43.0026 86.037C43.3074 86.8207 43.792 87.3422 44.4565 87.5983C45.1179 87.8545 45.8891 87.9856 46.7669 87.9856H60.9891C61.1933 87.9856 61.2939 87.8819 61.2939 87.6776V85.235C61.2939 85.0306 61.1933 84.9269 60.9891 84.9269H60.9678ZM39.9545 83.6309C39.8539 84.0456 39.6527 84.3506 39.3571 84.5458C39.0614 84.7379 38.6408 84.8507 38.1013 84.8812C37.5587 84.9117 36.8577 84.9269 36.0012 84.9269H29.3138C29.3534 84.7257 29.3839 84.5122 29.4052 84.2866C29.4265 84.0639 29.4357 83.8291 29.4357 83.5852V79.4409C30.2952 79.0353 31.2767 78.6602 32.3801 78.3126C33.4835 77.968 34.6082 77.7942 35.7543 77.7942C36.6138 77.7942 37.3179 77.8856 37.8696 78.0686C38.4213 78.2516 38.8664 78.5169 39.2047 78.8615C39.543 79.2061 39.7777 79.633 39.9088 80.1423C40.0429 80.6485 40.1069 81.2279 40.1069 81.8774C40.1069 82.6276 40.0551 83.2131 39.9545 83.6309Z" fill="#BBD8C9"/>
<path d="M31.3492 62.7607C14.0637 62.7607 0 48.6823 0 31.3788C0 14.0753 14.0637 0 31.3492 0C48.6347 0 62.6984 14.0784 62.6984 31.3819C62.6984 48.6854 48.6347 62.7637 31.3492 62.7637V62.7607ZM31.3492 1.57443C14.9324 1.57443 1.57584 14.9449 1.57584 31.3788C1.57584 47.8127 14.9324 61.1832 31.3492 61.1832C47.766 61.1832 61.1225 47.8127 61.1225 31.3788C61.1225 14.9449 47.766 1.57748 31.3492 1.57748V1.57443Z" fill="#BBD8C9"/>
<path d="M31.3207 59.5073C15.7909 59.5073 3.15674 46.8671 3.15674 31.3299C3.15674 15.7927 15.7909 3.14941 31.3207 3.14941C46.8505 3.14941 59.4847 15.7896 59.4847 31.3269C59.4847 46.8641 46.8505 59.5043 31.3207 59.5043V59.5073ZM31.3207 3.67698C16.0805 3.67698 3.681 16.0824 3.681 31.3299C3.681 46.5774 16.0805 58.9828 31.3207 58.9828C46.561 58.9828 58.9604 46.5774 58.9604 31.3299C58.9604 16.0824 46.561 3.67698 31.3207 3.67698Z" fill="#9BBC2E"/>
</svg>
