<svg width="32" height="32" viewBox="0 0 32 32" fill="none" xmlns="http://www.w3.org/2000/svg">
<path fill-rule="evenodd" clip-rule="evenodd" d="M5.96013 5.95891C6.35065 5.56838 6.98382 5.56838 7.37434 5.95891L16.0006 14.5851L24.6268 5.95891C25.0173 5.56838 25.6505 5.56838 26.041 5.95891C26.4315 6.34943 26.4315 6.9826 26.041 7.37312L17.4148 15.9993L26.041 24.6256C26.4315 25.0161 26.4315 25.6493 26.041 26.0398C25.6505 26.4303 25.0173 26.4303 24.6268 26.0398L16.0006 17.4136L7.37434 26.0398C6.98382 26.4303 6.35065 26.4303 5.96013 26.0398C5.56961 25.6493 5.56961 25.0161 5.96013 24.6256L14.5864 15.9993L5.96013 7.37312C5.56961 6.9826 5.56961 6.34943 5.96013 5.95891Z" fill="#071110"/>
</svg>
