<svg width="160" height="160" viewBox="0 0 160 160" fill="none" xmlns="http://www.w3.org/2000/svg">
<path d="M160 80C160 74.9743 150.116 70.9834 149.177 66.2338C148.209 61.339 155.795 53.8801 153.928 49.3763C152.028 44.795 141.37 44.8947 138.644 40.8222C135.896 36.7184 140.048 26.9108 136.568 23.4317C133.089 19.9526 123.282 24.1038 119.178 21.3562C115.105 18.6297 115.205 7.97179 110.624 6.07154C106.12 4.20454 98.661 11.7914 93.7663 10.8232C89.0166 9.88413 85.0257 0 80 0C74.9743 0 70.9834 9.88413 66.2338 10.8232C61.339 11.7914 53.8801 4.20454 49.3763 6.07154C44.795 7.97179 44.8947 18.6297 40.8222 21.3562C36.7184 24.1038 26.9108 19.9516 23.4317 23.4317C19.9526 26.9108 24.1038 36.7184 21.3562 40.8222C18.6297 44.8947 7.97179 44.795 6.07154 49.3763C4.20454 53.8801 11.7914 61.339 10.8232 66.2338C9.88413 70.9834 0 74.9743 0 80C0 85.0257 9.88413 89.0166 10.8232 93.7663C11.7914 98.661 4.20454 106.12 6.07154 110.624C7.97179 115.205 18.6297 115.105 21.3562 119.178C24.1038 123.282 19.9516 133.089 23.4317 136.568C26.9108 140.047 36.7184 135.896 40.8222 138.644C44.8947 141.37 44.795 152.028 49.3763 153.928C53.8801 155.795 61.339 148.209 66.2338 149.177C70.9834 150.116 74.9743 160 80 160C85.0257 160 89.0166 150.116 93.7663 149.177C98.661 148.209 106.12 155.795 110.624 153.928C115.205 152.028 115.105 141.37 119.178 138.644C123.282 135.896 133.089 140.048 136.568 136.568C140.047 133.089 135.896 123.282 138.644 119.178C141.37 115.105 152.028 115.205 153.928 110.624C155.795 106.12 148.209 98.661 149.177 93.7663C150.116 89.0166 160 85.0257 160 80ZM80 136.322C48.8937 136.322 23.6776 111.106 23.6776 80C23.6776 48.8937 48.8937 23.6776 80 23.6776C111.106 23.6776 136.322 48.8937 136.322 80C136.322 111.106 111.106 136.322 80 136.322Z" fill="#1F8A3D"/>
<path d="M80.0012 130.579C107.935 130.579 130.581 107.933 130.581 79.9992C130.581 52.0651 107.935 29.4199 80.0012 29.4199C52.067 29.4199 29.4219 52.0651 29.4219 79.9992C29.4219 107.933 52.067 130.579 80.0012 130.579Z" fill="#1F8A3D"/>
<path d="M68.8927 104.417L48.7108 84.2351C47.711 83.2353 47.711 81.6143 48.7108 80.6145L54.067 75.2583C55.0667 74.2585 56.6877 74.2585 57.6875 75.2583L70.7031 88.274L98.6803 60.2967C99.6801 59.2969 101.301 59.2969 102.301 60.2967L107.657 65.6528C108.657 66.6526 108.657 68.2736 107.657 69.2733L72.5132 104.417C71.5135 105.417 69.8925 105.417 68.8927 104.417Z" fill="#FDFDFD"/>
</svg>
